<?xml version="1.0" encoding="iso-8859-1"?>
<!-- Generator: Adobe Illustrator 19.0.0, SVG Export Plug-In . SVG Version: 6.00 Build 0)  -->
<svg version="1.1" id="Capa_1" xmlns="http://www.w3.org/2000/svg" xmlns:xlink="http://www.w3.org/1999/xlink" x="0px" y="0px"
	 viewBox="0 0 512 512" style="enable-background:new 0 0 512 512;" xml:space="preserve">
<g>
	<g>
		<path d="M503.467,59.733H8.533C3.823,59.733,0,63.556,0,68.267v375.467c0,4.719,3.823,8.533,8.533,8.533h494.933
			c4.719,0,8.533-3.814,8.533-8.533V68.267C512,63.556,508.186,59.733,503.467,59.733z M494.933,435.2H17.067V76.8h477.867V435.2z"
			/>
	</g>
</g>
<g>
	<g>
		<rect x="8.533" y="401.067" width="494.933" height="17.067"/>
	</g>
</g>
<g>
	<g>
		<path d="M204.8,341.333h-128c-4.71,0-8.533,3.814-8.533,8.533V409.6c0,4.719,3.823,8.533,8.533,8.533h128
			c4.71,0,8.533-3.814,8.533-8.533v-59.733C213.333,345.148,209.51,341.333,204.8,341.333z M196.267,401.067H85.333V358.4h110.933
			V401.067z"/>
	</g>
</g>
<g>
	<g>
		<rect x="102.4" y="349.867" width="17.067" height="59.733"/>
	</g>
</g>
<g>
	<g>
		<rect x="162.133" y="349.867" width="17.067" height="59.733"/>
	</g>
</g>
<g>
	<g>
		<path d="M469.333,93.867H42.667c-4.71,0-8.533,3.823-8.533,8.533v273.067c0,4.719,3.823,8.533,8.533,8.533H76.8v-17.067H51.2v-256
			h409.6v256H256V384h213.333c4.719,0,8.533-3.814,8.533-8.533V102.4C477.867,97.69,474.052,93.867,469.333,93.867z"/>
	</g>
</g>
<g>
	<g>
		
			<rect x="1.466" y="383.991" transform="matrix(0.7071 -0.7071 0.7071 0.7071 -270.0579 133.0712)" width="48.273" height="17.067"/>
	</g>
</g>
<g>
	<g>
		<rect x="17.072" y="61.197" transform="matrix(0.7071 -0.7071 0.7071 0.7071 -52.8404 43.0996)" width="17.067" height="48.273"/>
	</g>
</g>
<g>
	<g>
		
			<rect x="462.252" y="76.778" transform="matrix(0.7071 -0.7071 0.7071 0.7071 82.1362 368.9158)" width="48.273" height="17.066"/>
	</g>
</g>
<g>
	<g>
		
			<rect x="477.852" y="368.387" transform="matrix(0.7071 -0.7071 0.7071 0.7071 -135.097 458.8951)" width="17.067" height="48.273"/>
	</g>
</g>
<g>
	<g>
		<path d="M279.62,387.063l-42.667-51.2c-1.536-1.835-3.772-2.944-6.17-3.055c-2.355-0.179-4.719,0.794-6.417,2.492L207.3,352.367
			c-3.123,3.123-3.345,8.115-0.521,11.503l42.667,51.2c1.536,1.835,3.772,2.944,6.17,3.055c0.128,0.009,0.256,0.009,0.384,0.009
			c2.261,0,4.437-0.887,6.025-2.5l17.067-17.067C282.223,395.443,282.445,390.451,279.62,387.063z M256.572,396.962l-31.693-38.033
			l4.941-4.949l31.701,38.033L256.572,396.962z"/>
	</g>
</g>
<g>
	<g>
		<rect x="204.8" y="366.933" width="25.6" height="17.067"/>
	</g>
</g>
<g>
</g>
<g>
</g>
<g>
</g>
<g>
</g>
<g>
</g>
<g>
</g>
<g>
</g>
<g>
</g>
<g>
</g>
<g>
</g>
<g>
</g>
<g>
</g>
<g>
</g>
<g>
</g>
<g>
</g>
</svg>
